<?xml version="1.0" encoding="UTF-8" standalone="no"?><!DOCTYPE svg PUBLIC "-//W3C//DTD SVG 1.1//EN" "http://www.w3.org/Graphics/SVG/1.1/DTD/svg11.dtd"><svg width="100%" height="100%" viewBox="0 0 500 500" version="1.1" xmlns="http://www.w3.org/2000/svg" xmlns:xlink="http://www.w3.org/1999/xlink" xml:space="preserve" xmlns:serif="http://www.serif.com/" style="fill-rule:evenodd;clip-rule:evenodd;stroke-linejoin:round;stroke-miterlimit:2;"><g id="Ebene_1_1_"><g id="Keks"><g><path d="M138.4,73.9c45.4,-26.1 93.4,-21.7 117,-19.5c16.9,1.5 47.7,4.7 81.9,23.4c51.7,28.3 74.7,72.4 81.9,86.6c27.1,53.7 22.8,102.8 21.1,119.4c-1.9,18.6 -4.4,42.8 -18.7,67.9c-32.4,56.6 -99,71.6 -124,77.2c-30.4,6.8 -123.3,27.7 -191.9,-35.1c-70.3,-64.3 -56.1,-162.6 -51.5,-187.2c3.4,-18.1 17.9,-94.6 84.2,-132.7Z" style="fill:#ea9840;fill-rule:nonzero;"/><path d="M227.5,442.2c-39,0 -85.7,-9.3 -124.8,-45.1c-70.4,-64.5 -58.3,-162.7 -52.8,-191.3c15,-79.8 55.2,-117.9 86.3,-135.7c46.6,-26.8 95.9,-22.2 119.6,-20.1c15.6,1.4 48,4.4 83.6,23.9c35.8,19.6 64,49.4 83.7,88.5c18.8,37.1 26,78.1 21.5,121.8c-1.9,18.5 -4.5,43.8 -19.3,69.6c-33.4,58.3 -101.3,73.6 -126.9,79.4c-13.7,3.1 -39.9,9 -70.9,9Zm-86.9,-364.4c-29.5,16.9 -67.6,53.1 -82.1,129.6c-5.2,27.4 -16.9,121.7 50.1,183.1c66.9,61.2 158,40.8 187.9,34c24.5,-5.5 89.7,-20.1 121.2,-75.1c13.9,-24.2 16.2,-47.5 18.2,-66.1c4.3,-42 -2.6,-81.3 -20.6,-116.9c-19,-37.5 -45.9,-66 -80.1,-84.7c-34.1,-18.6 -65.2,-21.5 -80.2,-22.9c-22.8,-2 -70.2,-6.4 -114.4,19Z" style="fill:#ab5900;fill-rule:nonzero;"/></g><path d="M153.6,98.3c39,-22.3 80.2,-18.6 100.4,-16.7c14.5,1.3 41,4 70.3,20.1c44.3,24.3 64.1,62.1 70.3,74.3c23.3,46.1 19.5,88.2 18.1,102.4c-1.6,16 -3.8,36.7 -16.1,58.2c-27.8,48.6 -84.9,61.4 -106.4,66.3c-26.1,5.9 -105.8,23.8 -164.6,-30.1c-60.3,-55.2 -48.2,-139.5 -44.2,-160.6c2.9,-15.6 15.3,-81.3 72.2,-113.9Z" style="fill:#f7b658;fill-rule:nonzero;"/></g><g id="Schokostücke"><g><path d="M134.3,279.2c-3.6,0 -6.9,-0.8 -9.7,-2.5c-8.3,-4.9 -10.8,-15.8 -7.3,-32.4c0.9,-4.4 2.2,-10.4 7.6,-14c7.6,-5.1 17.8,-7.4 23.5,-1.3c0.3,0.3 1.5,0.9 2.4,1.3c4.1,1.9 11,5 14,16.3c1.9,7 -3.8,13.7 -7.2,17.6c-0.5,0.6 -1.2,1.4 -1.5,1.8c-1.4,4.5 -5.8,8.7 -11.8,11.1c-3.3,1.4 -6.7,2.1 -10,2.1Zm4.9,-45.1c-2.5,-0 -6.2,1.3 -9.5,3.5c-2.2,1.5 -2.9,4.3 -3.8,8.4c-2.6,12.5 -1.5,20.2 3.2,23c2.9,1.7 7.5,1.7 11.9,-0.1c4,-1.7 6.3,-4.1 6.8,-5.7c0.4,-1.5 1.4,-2.8 3.1,-4.7c2,-2.3 6.1,-7.1 5.4,-9.6c-1.9,-7.2 -5.6,-8.9 -9.1,-10.6c-1.8,-0.9 -3.8,-1.7 -5.2,-3.3c-0.7,-0.6 -1.6,-0.9 -2.8,-0.9Z" style="fill:#d68734;fill-rule:nonzero;"/><g><path d="M119.3,240.7c0.9,-4.3 1.9,-8.7 5.7,-11.2c5.3,-3.5 13.7,-6.4 17.8,-1.9c3.1,3.3 11.9,2.7 15.4,15.7c1.8,6.6 -8,14.6 -8.5,16.6c-1.9,7.3 -16.4,13.7 -25.2,8.5c-9.7,-5.7 -6.2,-22.5 -5.2,-27.7Z" style="fill:#b25f20;fill-rule:nonzero;"/><path d="M132.1,274.8c-3.6,0 -6.9,-0.8 -9.7,-2.5c-8.3,-4.9 -10.8,-15.8 -7.3,-32.4c0.9,-4.4 2.2,-10.4 7.6,-14c7.6,-5.1 17.8,-7.4 23.5,-1.3c0.3,0.3 1.5,0.9 2.4,1.3c4.1,1.9 11,5 14,16.3c1.9,7 -3.8,13.7 -7.2,17.6c-0.5,0.6 -1.2,1.4 -1.5,1.8c-1.4,4.5 -5.8,8.7 -11.8,11.1c-3.3,1.4 -6.8,2.1 -10,2.1Zm4.9,-45.1c-2.5,-0 -6.2,1.3 -9.5,3.5c-2.2,1.5 -2.9,4.3 -3.8,8.4c-2.6,12.5 -1.5,20.2 3.2,23c2.9,1.7 7.5,1.7 11.9,-0.1c4,-1.7 6.3,-4.1 6.8,-5.7c0.4,-1.5 1.4,-2.8 3.1,-4.7c2,-2.3 6.1,-7.1 5.4,-9.6c-1.9,-7.2 -5.6,-8.9 -9.1,-10.6c-1.8,-0.9 -3.8,-1.7 -5.2,-3.3c-0.7,-0.6 -1.7,-0.9 -2.8,-0.9Z" style="fill:#6c3906;fill-rule:nonzero;"/></g></g><g><path d="M259.1,316.1c-3.9,0 -7.5,-1 -10.6,-3.1c-13.1,-8.7 -9,-31.2 -7.7,-38.6c1,-5.5 2.3,-12.3 7.9,-16.5c8.3,-6.2 19.4,-9.1 25.5,-1.7c0.4,0.5 1.6,1.1 2.8,1.7c4.7,2.4 11.7,6.1 14.9,19.4c1.9,7.9 -4.1,15.7 -7.6,20.4c-0.6,0.9 -1.4,1.9 -1.7,2.4c-1.5,5.8 -6.9,11.1 -14.1,14c-3.1,1.3 -6.3,2 -9.4,2Zm5.4,-55.4c-3,0 -7.1,1.8 -10.4,4.3c-2.6,2 -3.5,5.8 -4.5,11.1c-3.7,19.9 0.1,27.1 3.9,29.6c3,2 7.4,2.1 11.9,0.3c4.5,-1.8 8.1,-5.1 8.8,-8.1c0.4,-1.6 1.4,-3 3.2,-5.4c2.5,-3.2 7,-9.3 6.1,-13.1c-2.2,-9.4 -6.4,-11.5 -10.4,-13.6c-2,-1 -4,-2.1 -5.6,-4c-0.7,-0.8 -1.7,-1.1 -3,-1.1Zm18.3,39.2l0,0Z" style="fill:#d68734;fill-rule:nonzero;"/><g><path d="M242.7,269.8c1,-5.3 2,-10.7 6.2,-13.8c5.7,-4.3 15,-7.9 19.5,-2.4c3.3,4.1 13,3.3 16.8,19.3c1.9,8.2 -8.7,18 -9.3,20.5c-2.1,9 -17.9,16.8 -27.5,10.5c-10.6,-7.1 -6.8,-27.8 -5.7,-34.1Z" style="fill:#b25f20;fill-rule:nonzero;"/><path d="M256.6,310.6c-3.9,0 -7.5,-1 -10.6,-3.1c-13.1,-8.7 -9,-31.2 -7.7,-38.6c1,-5.5 2.3,-12.3 7.9,-16.5c8.3,-6.2 19.4,-9.1 25.5,-1.7c0.4,0.5 1.6,1.1 2.8,1.7c4.7,2.4 11.7,6.1 14.9,19.4c1.9,7.9 -4.1,15.7 -7.6,20.5c-0.6,0.9 -1.4,1.9 -1.7,2.4c-1.5,5.8 -6.9,11.1 -14.1,14c-3.1,1.3 -6.3,1.9 -9.4,1.9Zm5.3,-55.3c-3,0 -7.1,1.8 -10.4,4.3c-2.6,2 -3.5,5.8 -4.5,11.1c-3.7,19.9 0.1,27.1 3.9,29.6c3,2 7.4,2.1 11.9,0.3c4.5,-1.8 8.1,-5.1 8.8,-8.1c0.4,-1.6 1.4,-3 3.2,-5.4c2.5,-3.2 7,-9.3 6.1,-13.1c-2.2,-9.4 -6.4,-11.5 -10.4,-13.6c-2,-1 -4,-2.1 -5.6,-4c-0.6,-0.8 -1.6,-1.1 -3,-1.1Z" style="fill:#6c3906;fill-rule:nonzero;"/></g></g><g><path d="M326.2,389.6c-3.6,0 -6.9,-0.8 -9.7,-2.5c-8.3,-4.9 -10.8,-15.8 -7.4,-32.4c0.9,-4.4 2.2,-10.4 7.6,-14c7.6,-5 17.8,-7.4 23.5,-1.3c0.3,0.3 1.5,0.9 2.5,1.3c4.1,1.9 11,5 14,16.3c1.9,7 -3.8,13.7 -7.2,17.6c-0.5,0.6 -1.2,1.4 -1.5,1.8c-1.4,4.5 -5.8,8.7 -11.8,11.1c-3.3,1.4 -6.7,2.1 -10,2.1Zm-12.7,-34l4.3,0.9c-2.6,12.5 -1.5,20.2 3.2,23c2.9,1.7 7.5,1.7 11.9,-0.1c4,-1.7 6.3,-4.1 6.8,-5.7c0.4,-1.5 1.4,-2.8 3.1,-4.7c2,-2.3 6.1,-7.1 5.4,-9.6c-1.9,-7.2 -5.6,-8.9 -9.1,-10.5c-1.8,-0.9 -3.8,-1.7 -5.2,-3.3c-1.7,-1.8 -7.3,-0.6 -12.2,2.6c-2.2,1.5 -2.9,4.3 -3.8,8.4l-4.4,-1Z" style="fill:#d68734;fill-rule:nonzero;"/><g><path d="M311.3,351.1c0.9,-4.3 1.9,-8.7 5.7,-11.2c5.3,-3.5 13.7,-6.4 17.9,-1.9c3.1,3.3 11.9,2.7 15.4,15.7c1.8,6.6 -8,14.6 -8.5,16.6c-1.9,7.3 -16.4,13.7 -25.2,8.5c-9.9,-5.7 -6.4,-22.5 -5.3,-27.7Z" style="fill:#b25f20;fill-rule:nonzero;"/><path d="M324,385.2c-3.6,0 -6.9,-0.8 -9.7,-2.5c-8.3,-4.9 -10.8,-15.8 -7.4,-32.4c0.9,-4.4 2.2,-10.4 7.6,-14c7.6,-5 17.8,-7.4 23.5,-1.3c0.3,0.3 1.5,0.9 2.5,1.3c4.1,1.9 11,5 14,16.3c1.9,7 -3.8,13.7 -7.2,17.6c-0.5,0.6 -1.2,1.4 -1.5,1.8c-1.4,4.5 -5.8,8.7 -11.8,11.1c-3.3,1.4 -6.7,2.1 -10,2.1Zm-12.7,-34.1l4.3,0.9c-2.6,12.5 -1.5,20.2 3.2,23c2.9,1.7 7.5,1.7 11.9,-0.1c4,-1.7 6.3,-4.1 6.8,-5.7c0.4,-1.5 1.4,-2.8 3.1,-4.7c2,-2.3 6.1,-7.1 5.4,-9.6c-1.9,-7.2 -5.6,-8.9 -9.1,-10.5c-1.8,-0.9 -3.8,-1.7 -5.2,-3.3c-1.7,-1.8 -7.3,-0.6 -12.2,2.6c-2.2,1.5 -2.9,4.3 -3.8,8.4l-4.4,-1Z" style="fill:#6c3906;fill-rule:nonzero;"/></g></g><g><path d="M386,301.9c-4.1,-0 -8.9,-1.5 -20.4,-8.8c-7,-4.4 -8.1,-9.6 -8.8,-12.4c-0.1,-0.4 -0.2,-1 -0.3,-1.1c-2.7,-5 -2.4,-12.5 1,-19.8c3.8,-8.3 10.4,-14.3 17.6,-15.9c15.4,-3.5 23.1,10.5 26.8,17.2c0.5,0.9 1,1.7 1.4,2.4c0.6,1 1.7,2.4 2.8,3.9c3.9,5.2 8.8,11.6 7.4,17.8c-2.4,10.2 -13.8,16.8 -22.8,16.5c-0.7,-0 -1.4,-0 -2.1,0.1c-0.9,0 -1.7,0.1 -2.6,0.1Zm-6.3,-49.8c-0.8,-0 -1.7,0.1 -2.6,0.3c-4.5,1 -8.9,5.2 -11.5,11c-2.1,4.6 -2.6,9.5 -1.2,12c0.6,1.1 0.9,2.2 1.1,3.3c0.5,2.3 1,4.4 4.9,6.9c12.4,7.9 14.8,7.6 17.4,7.3c0.9,-0.1 2,-0.2 3.3,-0.2c5.5,0.2 12.7,-4 14,-9.7c0.5,-2.1 -3.8,-7.7 -5.8,-10.4c-1.3,-1.6 -2.4,-3.2 -3.3,-4.6c-0.5,-0.8 -1,-1.7 -1.6,-2.8c-4,-6.9 -8.1,-13.1 -14.7,-13.1Z" style="fill:#d68734;fill-rule:nonzero;"/><g><path d="M397.3,261.3c2.9,4.7 11,12.8 9.7,18.4c-1.8,7.7 -10.8,13.3 -18.4,13.1c-5.3,-0.1 -6,2.9 -22.9,-7.9c-7.3,-4.6 -6.3,-9.5 -7.5,-11.8c-4.5,-8.4 3.3,-26.6 15.7,-29.4c14,-3.1 20,12 23.4,17.6Z" style="fill:#b25f20;fill-rule:nonzero;"/><path d="M383.8,297.5c-4.1,0 -8.9,-1.5 -20.4,-8.8c-7,-4.4 -8.1,-9.6 -8.8,-12.4c-0.1,-0.4 -0.2,-1 -0.3,-1.1c-2.7,-5 -2.4,-12.5 1,-19.8c3.8,-8.3 10.4,-14.3 17.6,-15.9c15.4,-3.5 23.1,10.5 26.8,17.2c0.5,0.9 1,1.7 1.4,2.4c0.6,1 1.7,2.4 2.8,3.9c3.9,5.2 8.8,11.6 7.4,17.8c-2.4,10.2 -13.8,16.7 -22.8,16.5c-0.7,0 -1.4,0 -2.1,0.1c-0.9,0 -1.7,0.1 -2.6,0.1Zm-6.3,-49.8c-0.8,0 -1.7,0.1 -2.6,0.3c-4.5,1 -8.9,5.2 -11.5,11c-2.1,4.6 -2.6,9.5 -1.2,12c0.6,1.1 0.9,2.2 1.1,3.3c0.5,2.3 1,4.4 4.9,6.9c12.4,7.9 14.8,7.6 17.4,7.3c0.9,-0.1 1.9,-0.2 3.3,-0.2c5.5,0.1 12.7,-4 14,-9.7c0.5,-2.1 -3.8,-7.7 -5.8,-10.4c-1.3,-1.6 -2.4,-3.2 -3.3,-4.6c-0.5,-0.8 -1,-1.7 -1.6,-2.8c-4,-6.9 -8.1,-13.1 -14.7,-13.1Z" style="fill:#6c3906;fill-rule:nonzero;"/></g></g><g><path d="M190.9,395c-1.4,0 -2.8,-0.1 -4.1,-0.5c-10.2,-2.3 -16.4,-12.9 -18.4,-31.4c-0.5,-4.9 -1.2,-11.6 3.1,-17c5.5,-6.9 17.4,-9 25.3,-4.6c3.6,2 4.9,4.6 6.6,8.2c1.3,2.6 3,6.1 6.4,11.4c1.3,2.1 2.3,3.5 3.1,4.6c1.7,2.5 2.8,4 2.9,6.8c0.3,5.3 -2.9,11.2 -8.5,16c-5,4.2 -10.9,6.5 -16.4,6.5Zm-3.6,-47c-3.4,0 -7,1.3 -8.9,3.6c-2,2.5 -1.8,5.8 -1.3,10.6c1.5,14.3 5.4,22.3 11.6,23.7c3.8,0.9 8.8,-0.8 12.9,-4.3c3.9,-3.2 5.5,-6.8 5.4,-8.7c-0.1,-0.4 -0.7,-1.3 -1.3,-2.2c-0.8,-1.1 -1.9,-2.6 -3.3,-4.9c-3.7,-5.8 -5.6,-9.7 -6.9,-12.3c-1.6,-3.2 -1.9,-3.7 -3,-4.4c-1.5,-0.7 -3.3,-1.1 -5.2,-1.1Z" style="fill:#d68734;fill-rule:nonzero;"/><g><path d="M170.6,358.3c-0.5,-4.9 -1,-9.8 2.2,-13.8c4.4,-5.5 13.8,-6.8 19.7,-3.5c4.4,2.5 3.4,5.5 11.5,18.1c4.1,6.4 5.2,6.9 5.3,9.2c0.4,8.4 -12.8,20 -23.7,17.5c-12.4,-2.8 -14.4,-21.8 -15,-27.5Z" style="fill:#b25f20;fill-rule:nonzero;"/><path d="M188.6,390.6c-1.4,0 -2.8,-0.1 -4.1,-0.5c-10.2,-2.3 -16.4,-12.9 -18.4,-31.4c-0.5,-4.9 -1.2,-11.6 3.1,-17c5.5,-6.9 17.4,-9 25.3,-4.6c3.6,2 4.9,4.6 6.6,8.2c1.3,2.6 3,6.1 6.4,11.4c1.3,2.1 2.3,3.5 3.1,4.6c1.7,2.5 2.8,4 2.9,6.8c0.3,5.3 -2.9,11.2 -8.5,16c-4.9,4.1 -10.8,6.5 -16.4,6.5Zm-3.5,-47c-3.4,0 -7,1.3 -8.9,3.6c-2,2.5 -1.8,5.8 -1.3,10.6c1.5,14.3 5.4,22.3 11.6,23.7c3.8,0.9 8.8,-0.8 12.9,-4.3c3.9,-3.2 5.5,-6.8 5.4,-8.7c-0.1,-0.4 -0.7,-1.3 -1.3,-2.2c-0.8,-1.1 -1.9,-2.6 -3.3,-4.9c-3.7,-5.8 -5.6,-9.7 -6.9,-12.3c-1.6,-3.2 -1.9,-3.7 -3,-4.4c-1.5,-0.7 -3.3,-1.1 -5.2,-1.1Z" style="fill:#6c3906;fill-rule:nonzero;"/></g></g><g><path d="M283,147.8c-1.4,0 -2.8,-0.1 -4.1,-0.4c-10.2,-2.3 -16.4,-12.9 -18.4,-31.4c-0.5,-4.9 -1.2,-11.6 3.1,-17c5.5,-6.9 17.4,-9 25.3,-4.6c3.6,2.1 4.9,4.6 6.6,8.2c1.3,2.6 3,6.1 6.4,11.4c1.3,2.1 2.3,3.5 3.1,4.6c1.7,2.5 2.8,4 2.9,6.8c0.3,5.3 -2.9,11.2 -8.5,16c-4.9,4 -10.9,6.4 -16.4,6.4Zm-13.7,-32.8c1.5,14.3 5.4,22.3 11.5,23.7c3.8,0.9 8.8,-0.8 13,-4.3c3.9,-3.2 5.5,-6.8 5.4,-8.7c-0.1,-0.4 -0.7,-1.3 -1.3,-2.2c-0.8,-1.1 -1.9,-2.7 -3.3,-4.8c-3.7,-5.8 -5.6,-9.7 -6.9,-12.3c-1.6,-3.2 -1.9,-3.7 -3,-4.4c-4.3,-2.4 -11.2,-1.2 -14.1,2.4c-2,2.4 -1.8,5.8 -1.3,10.6l-4.4,0.5l4.4,-0.5Z" style="fill:#d68734;fill-rule:nonzero;"/><g><path d="M262.7,111c-0.5,-4.9 -1,-9.8 2.2,-13.8c4.4,-5.5 13.8,-6.8 19.7,-3.5c4.4,2.4 3.4,5.5 11.5,18.1c4.1,6.4 5.2,6.9 5.3,9.2c0.4,8.4 -12.8,20 -23.7,17.5c-12.4,-2.7 -14.4,-21.7 -15,-27.5Z" style="fill:#b25f20;fill-rule:nonzero;"/><path d="M280.8,143.3c-1.4,0 -2.8,-0.1 -4.1,-0.4c-10.2,-2.3 -16.4,-12.9 -18.4,-31.4c-0.5,-4.9 -1.2,-11.6 3.1,-17c5.5,-6.9 17.4,-9 25.3,-4.6c3.6,2.1 4.9,4.6 6.6,8.2c1.3,2.6 3,6.1 6.4,11.4c1.3,2.1 2.3,3.5 3.1,4.6c1.7,2.5 2.8,4 2.9,6.8c0.3,5.3 -2.9,11.2 -8.5,16c-5,4.1 -10.9,6.4 -16.4,6.4Zm-13.7,-32.7c1.5,14.3 5.4,22.3 11.5,23.7c3.8,0.9 8.8,-0.8 13,-4.3c3.9,-3.2 5.5,-6.8 5.4,-8.7c-0.1,-0.4 -0.7,-1.3 -1.3,-2.2c-0.8,-1.1 -1.9,-2.7 -3.3,-4.8c-3.7,-5.8 -5.6,-9.7 -6.9,-12.3c-1.6,-3.2 -1.9,-3.7 -3,-4.4c-4.3,-2.4 -11.2,-1.2 -14.1,2.4c-2,2.4 -1.8,5.8 -1.3,10.6l-4.4,0.5l4.4,-0.5Z" style="fill:#6c3906;fill-rule:nonzero;"/></g></g><g><path d="M350.1,214.5c-3.9,0 -7.5,-0.9 -10.5,-2.7c-13.5,-8 -10.1,-24.7 -8.8,-31l4.3,0.9l-4.3,-0.9c1.7,-8.3 4,-16.4 9,-19.8c6.6,-4.4 15,-1.9 23.1,6.8c0.3,0.4 1,0.7 2.1,1.1c4.6,2 9.4,4.9 12.4,16.2c2,7.4 -1.3,11.7 -3.1,14c-0.2,0.3 -0.4,0.5 -0.6,0.7c-1.5,5 -6.3,9.6 -12.9,12.4c-3.6,1.6 -7.2,2.3 -10.7,2.3Zm-3.3,-46.7c-0.7,0 -1.4,0.2 -2,0.6c-1.3,0.9 -3.2,4 -5.3,14.2c-1.7,8.3 -2.5,17.4 4.7,21.6c3.3,2 8.4,1.9 13.4,-0.1c4,-1.6 7.2,-4.4 7.8,-6.7c0.4,-1.5 1.3,-2.6 2,-3.6c1.3,-1.7 2.4,-3.1 1.5,-6.3c-2.2,-8.1 -4.6,-9.2 -7.3,-10.3c-1.5,-0.7 -3.5,-1.5 -5.1,-3.3c-1.1,-1.1 -5.9,-6.1 -9.7,-6.1Zm27,31.9l0,0Z" style="fill:#d68734;fill-rule:nonzero;"/><g><path d="M332.9,177.3c1,-4.8 3,-14.2 7.2,-17c5.8,-3.9 12.9,1.2 17.4,6.2c3.4,3.7 9.6,1 13.4,15.4c2,7.4 -3,10 -3.6,12.2c-2.1,8.1 -18.1,15.2 -27.7,9.5c-10.7,-6.4 -7.8,-20.6 -6.7,-26.3Z" style="fill:#b25f20;fill-rule:nonzero;"/><path d="M347.9,210.1c-3.9,0 -7.5,-0.9 -10.5,-2.7c-13.5,-8 -10.1,-24.7 -8.8,-31l4.3,0.9l-4.3,-0.9c1.7,-8.3 4,-16.4 9,-19.8c6.6,-4.4 15,-1.9 23.1,6.8c0.3,0.4 1,0.7 2.1,1.1c4.6,2 9.4,4.9 12.4,16.2c2,7.4 -1.3,11.7 -3.1,14c-0.2,0.3 -0.4,0.5 -0.6,0.7c-1.5,5 -6.3,9.6 -12.9,12.4c-3.6,1.6 -7.2,2.3 -10.7,2.3Zm-3.3,-46.7c-0.7,0 -1.4,0.2 -2,0.6c-1.3,0.9 -3.2,4 -5.3,14.2c-1.7,8.3 -2.5,17.4 4.7,21.6c3.3,2 8.4,1.9 13.4,-0.1c4,-1.6 7.2,-4.4 7.8,-6.7c0.4,-1.5 1.3,-2.6 2,-3.6c1.3,-1.7 2.4,-3.1 1.5,-6.3c-2.2,-8.1 -4.6,-9.2 -7.3,-10.3c-1.5,-0.7 -3.5,-1.5 -5.1,-3.3c-1.1,-1.2 -5.9,-6.1 -9.7,-6.1Zm27,31.9l0,0Z" style="fill:#6c3906;fill-rule:nonzero;"/></g></g><g><path d="M224,223.5c-3.7,0 -7.1,-0.9 -10,-2.6c-12.9,-7.7 -9.5,-24 -8.4,-29.4l4.3,0.9l-4.3,-0.9c1.6,-7.8 3.8,-15.5 8.6,-18.8c6.3,-4.3 14.4,-1.9 22.1,6.5c0.3,0.3 1,0.6 1.8,1c4.4,1.9 8.9,4.6 11.8,15.4c1.9,7.1 -1.4,11.4 -2.9,13.4c-0.2,0.2 -0.4,0.4 -0.5,0.6c-1.4,4.8 -6,9.2 -12.3,11.8c-3.4,1.4 -6.9,2.1 -10.2,2.1Zm-3.1,-43.9c-0.6,0 -1.2,0.2 -1.8,0.5c-1.1,0.8 -2.9,3.7 -4.9,13.2c-1.6,7.7 -2.3,16.1 4.3,20.1c3,1.8 7.8,1.8 12.3,-0.1c4.3,-1.8 6.7,-4.4 7.2,-6.1c0.4,-1.4 1.2,-2.5 2,-3.5c1.3,-1.6 2.2,-2.8 1.4,-5.7c-2,-7.5 -4.2,-8.5 -6.7,-9.6c-1.5,-0.6 -3.3,-1.4 -4.9,-3.1c-2.6,-2.9 -6.2,-5.7 -8.9,-5.7Z" style="fill:#d68734;fill-rule:nonzero;"/><g><path d="M207.7,187.9c0.9,-4.5 2.8,-13.3 6.8,-16c5.4,-3.6 12.1,1.1 16.4,5.8c3.2,3.4 9,0.9 12.6,14.5c1.8,6.9 -2.8,9.4 -3.4,11.5c-2,7.7 -17,14.3 -26,8.9c-10.2,-6 -7.5,-19.3 -6.4,-24.7Z" style="fill:#b25f20;fill-rule:nonzero;"/><path d="M221.8,219.1c-3.7,0 -7.1,-0.9 -10,-2.6c-12.9,-7.7 -9.5,-24 -8.4,-29.4l4.3,0.9l-4.3,-0.9c1.6,-7.8 3.8,-15.5 8.6,-18.8c6.3,-4.3 14.4,-1.9 22.1,6.5c0.3,0.3 1,0.6 1.8,1c4.4,1.9 8.9,4.6 11.8,15.4c1.9,7.1 -1.4,11.4 -2.9,13.4c-0.2,0.2 -0.4,0.4 -0.5,0.6c-1.4,4.8 -6,9.2 -12.3,11.8c-3.4,1.4 -6.9,2.1 -10.2,2.1Zm-3.1,-44c-0.6,0 -1.2,0.2 -1.8,0.5c-1.1,0.8 -2.9,3.7 -4.9,13.2c-1.6,7.7 -2.3,16.1 4.3,20.1c3,1.8 7.8,1.8 12.3,-0.1c4.3,-1.8 6.7,-4.4 7.2,-6.1c0.4,-1.4 1.2,-2.5 2,-3.5c1.3,-1.6 2.2,-2.8 1.4,-5.7c-2,-7.5 -4.2,-8.5 -6.7,-9.6c-1.5,-0.6 -3.3,-1.4 -4.9,-3.1c-2.6,-2.9 -6.2,-5.7 -8.9,-5.7Z" style="fill:#6c3906;fill-rule:nonzero;"/></g></g><g><path d="M155.6,157.8c-2.1,0 -4.6,-0.4 -7.6,-1.2c-6.4,-1.8 -8.2,-6.3 -9.1,-8.4c-0.1,-0.2 -0.1,-0.4 -0.2,-0.5c-3,-3.3 -4.3,-8.8 -3.5,-14.8c1,-6.8 4.5,-12.6 9.5,-15.3c11.7,-6.4 22.7,3.4 26.3,6.7c5.2,4.7 10.1,9.8 10.4,15c0.4,6.8 -5.2,12.1 -15,14.3c-0.2,0.1 -0.8,0.5 -1.3,0.9c-2.4,1.6 -5,3.3 -9.5,3.3Zm-2.7,-33.5c-1.3,-0 -2.6,0.3 -3.9,1c-2.5,1.4 -4.4,4.8 -5,8.8c-0.5,3.6 0.3,6.5 1.3,7.5c1,1 1.5,2.2 1.9,3.2c0.6,1.6 1,2.6 3.3,3.2c6.2,1.7 7.8,0.6 9.6,-0.7c1.2,-0.9 2.6,-1.9 4.7,-2.4c4.1,-0.9 8.2,-2.8 8,-5.1c-0,-0.7 -0.9,-3 -7.5,-9c-4,-3.3 -8.2,-6.5 -12.4,-6.5Z" style="fill:#d68734;fill-rule:nonzero;"/><g><path d="M165.8,123.1c3,2.7 8.7,7.9 9,12c0.3,5.7 -6.1,8.5 -11.5,9.7c-3.9,0.9 -4.6,6.3 -16.4,3c-6,-1.7 -5.8,-6.2 -7.1,-7.5c-4.8,-4.9 -3.2,-18.9 4.8,-23.3c8.9,-4.9 17.7,2.9 21.2,6.1Z" style="fill:#b25f20;fill-rule:nonzero;"/><path d="M153.4,153.3c-2.1,0 -4.6,-0.4 -7.6,-1.2c-6.4,-1.8 -8.2,-6.3 -9.1,-8.4c-0.1,-0.2 -0.1,-0.4 -0.2,-0.5c-3,-3.3 -4.3,-8.8 -3.5,-14.8c1,-6.8 4.5,-12.6 9.5,-15.3c11.7,-6.4 22.7,3.4 26.3,6.7c5.2,4.7 10.1,9.8 10.4,15c0.4,6.8 -5.2,12.1 -15,14.3c-0.2,0.1 -0.8,0.5 -1.3,0.9c-2.4,1.7 -5,3.3 -9.5,3.3Zm-2.8,-33.5c-1.3,-0 -2.6,0.3 -3.9,1c-2.5,1.4 -4.4,4.8 -5,8.8c-0.5,3.6 0.3,6.5 1.3,7.5c1,1 1.5,2.2 1.9,3.2c0.6,1.6 1,2.6 3.3,3.2c6.2,1.7 7.8,0.6 9.6,-0.7c1.2,-0.9 2.6,-1.9 4.7,-2.4c4.1,-0.9 8.2,-2.8 8,-5.1c-0,-0.7 -0.9,-3 -7.5,-9c-3.9,-3.3 -8.1,-6.5 -12.4,-6.5Z" style="fill:#6c3906;fill-rule:nonzero;"/></g></g></g><g id="Poren"><g opacity="0.5"><path d="M182.9,289.9c1.2,-2.5 1.7,-3.8 3.1,-4.2c1.4,-0.4 2.9,0.3 3.7,1.2c1.6,1.6 1.4,4.2 0.4,5.9c-1.1,1.8 -2.9,2.2 -4.3,2.5c-1.2,0.3 -3.3,0.8 -4.1,-0.2c-0.8,-0.9 0,-2.7 1.2,-5.2Z" style="fill:#d68734;fill-rule:nonzero;"/><path d="M183.4,296.8c-1,0 -1.9,-0.2 -2.5,-1c-1.2,-1.5 -0.3,-3.5 1,-6.4c1.2,-2.6 2,-4.2 3.8,-4.8c1.8,-0.5 3.7,0.4 4.8,1.5c2,2 1.8,5.2 0.5,7.2c-1.3,2.1 -3.5,2.7 -5,3c-0.6,0.3 -1.6,0.5 -2.6,0.5Zm3.4,-10c-0.2,0 -0.4,0 -0.5,0.1c-0.8,0.2 -1.3,1.1 -2.4,3.6c-0.7,1.5 -1.7,3.6 -1.3,4c0.2,0.2 0.8,0.4 3,-0.2c1.3,-0.3 2.8,-0.7 3.6,-2c0.8,-1.3 0.9,-3.3 -0.2,-4.5c-0.6,-0.6 -1.4,-1 -2.2,-1Z" style="fill:#d68734;fill-rule:nonzero;"/></g><g opacity="0.5"><path d="M116.8,280.5c1.2,-2.5 1.7,-3.8 3.1,-4.2c1.4,-0.4 2.8,0.3 3.7,1.2c1.6,1.6 1.4,4.2 0.4,5.9c-1.1,1.8 -2.9,2.2 -4.3,2.5c-1.2,0.3 -3.3,0.8 -4.1,-0.2c-0.8,-1 -0,-2.8 1.2,-5.2Z" style="fill:#d68734;fill-rule:nonzero;"/><path d="M117.3,287.4c-1,-0 -1.9,-0.2 -2.5,-1c-1.2,-1.5 -0.3,-3.5 1,-6.4l1,0.5l-1,-0.5c1.2,-2.6 1.9,-4.2 3.8,-4.8c1.8,-0.5 3.7,0.4 4.8,1.5c2,2 1.8,5.2 0.5,7.2c-1.3,2.1 -3.5,2.7 -5,3c-0.6,0.2 -1.7,0.5 -2.6,0.5Zm-0.5,-6.9l1,0.5c-0.7,1.5 -1.7,3.6 -1.3,4c0.2,0.2 0.8,0.4 3,-0.2c1.3,-0.3 2.8,-0.7 3.6,-2c0.8,-1.3 0.9,-3.3 -0.2,-4.5c-0.6,-0.6 -1.7,-1.1 -2.6,-0.9c-0.8,0.2 -1.3,1.1 -2.4,3.5l-1.1,-0.4Z" style="fill:#d68734;fill-rule:nonzero;"/></g><g opacity="0.3"><path d="M280,226.2c-0.7,-2.5 -1.1,-1.9 -2,-2.3c-0.8,-0.4 -1.7,-1.5 -2.2,-0.7c-1,1.6 -0.9,4.2 -0.2,5.9c0.6,1.8 1.8,2.2 2.6,2.5c0.7,0.3 2,0.8 2.5,-0.2c0.6,-1 -0,-2.8 -0.7,-5.2Z" style="fill:#d68734;fill-rule:nonzero;"/><path d="M279.8,233c-0.8,0 -1.6,-0.3 -2,-0.5c-0.9,-0.4 -2.4,-1 -3.3,-3.2c-0.7,-1.9 -0.8,-4.9 0.3,-6.8c0.3,-0.6 0.8,-0.8 1.1,-0.8c0.8,-0.2 1.4,0.3 1.9,0.7c0.2,0.1 0.4,0.3 0.5,0.4c0.1,0.1 0.2,0.1 0.3,0.1c1.2,0.3 1.7,1 2.3,2.9l-1.1,0.3l1.1,-0.3c0.8,2.8 1.3,4.7 0.6,6c-0.2,1 -1,1.2 -1.7,1.2Zm-3.2,-8.8c-0.5,1.3 -0.4,3.2 0.1,4.4c0.5,1.3 1.3,1.6 2,1.9c0.2,0.1 1,0.4 1.2,0.3c0.2,-0.5 -0.3,-2.6 -0.9,-4.4l1.1,-0.3l-1.1,0.3c-0.3,-1.1 -0.5,-1.4 -0.5,-1.4c-0.4,-0.1 -0.6,-0.1 -0.9,-0.3c-0.4,0 -0.7,-0.2 -1,-0.5Z" style="fill:#d68734;fill-rule:nonzero;"/></g><g opacity="0.3"><path d="M337.1,147.7c-0.7,-2.5 -1.1,-1.9 -2,-2.3c-0.8,-0.4 -1.7,-1.5 -2.2,-0.7c-1,1.6 -0.9,4.2 -0.2,5.9c0.6,1.8 1.8,2.2 2.6,2.5c0.7,0.3 2,0.8 2.5,-0.2c0.5,-1 -0,-2.8 -0.7,-5.2Z" style="fill:#d68734;fill-rule:nonzero;"/><path d="M336.9,154.6c-0.8,0 -1.6,-0.3 -1.9,-0.4c-0.9,-0.4 -2.5,-1 -3.3,-3.2c-0.7,-1.9 -0.8,-4.9 0.3,-6.8c0.3,-0.6 0.8,-0.8 1.1,-0.8c0.8,-0.2 1.4,0.3 1.9,0.7c0.2,0.1 0.4,0.3 0.5,0.4c0.1,0.1 0.2,0.1 0.3,0.1c1.2,0.3 1.7,1 2.3,2.9l-1.1,0.3l1.1,-0.3c0.8,2.8 1.3,4.7 0.6,6c-0.3,0.8 -1.1,1.1 -1.8,1.1Zm-3.2,-8.9c-0.5,1.3 -0.4,3.2 0.1,4.4c0.5,1.3 1.2,1.6 2,1.9c0.2,0.1 1,0.4 1.2,0.3c0.2,-0.5 -0.3,-2.6 -0.8,-4.4l1.1,-0.3l-1.1,0.3c-0.3,-1.1 -0.5,-1.4 -0.5,-1.4c-0.4,-0.1 -0.6,-0.1 -0.9,-0.3c-0.5,0 -0.8,-0.2 -1.1,-0.5Z" style="fill:#d68734;fill-rule:nonzero;"/></g><g opacity="0.5"><path d="M274.2,353.7c-0.7,-2.5 -1.1,-3.8 -1.9,-4.2c-0.8,-0.4 -1.8,0.3 -2.3,1.2c-1,1.6 -0.9,4.2 -0.2,5.9c0.6,1.8 -0.8,-0.3 0,0c0.7,0.3 4.6,0.7 5.1,-0.3c0.5,-0.9 -0,-0.2 -0.7,-2.6Z" style="fill:#d68734;fill-rule:nonzero;"/><path d="M269.8,358.7l-0.8,-0.7c-0.3,-0.3 -0.8,-1.1 -0.5,-1.8c-0.5,-1.9 -0.4,-4.3 0.6,-6c0.9,-1.5 2.4,-2.2 3.7,-1.6c1.3,0.6 1.7,2 2.5,4.9c0.3,1 0.5,1.3 0.6,1.5c0.5,0.8 0.3,1.3 0,1.9c-0.7,1.4 -3.3,1.3 -5,1.1c-0.1,0.1 -0.2,0.2 -0.3,0.3l-0.8,0.4Zm-0.4,-1.1l-0,0Zm1.2,-2c0.9,0.1 2.5,0.2 3.2,0.1c-0.2,-0.4 -0.4,-0.9 -0.7,-1.7c-0.5,-1.7 -0.9,-3.3 -1.3,-3.5c-0.1,-0.1 -0.5,0.2 -0.9,0.7c-0.6,1.2 -0.6,3.1 -0.3,4.4Z" style="fill:#d68734;fill-rule:nonzero;"/></g><g><path d="M315.3,312.6c2.4,-1 3.6,-1.5 3.9,-2.4c0.3,-0.9 -0.5,-1.7 -1.4,-2.1c-1.7,-0.8 -4.3,-0.4 -5.8,0.4c-1.7,0.8 0.2,-0.9 0,0c-0.2,0.7 -0.2,4.7 0.8,5.1c1,0.3 0.2,-0.1 2.5,-1Z" style="fill:#d68734;fill-rule:nonzero;"/><path d="M313.3,314.8c-0.3,0 -0.6,-0.1 -0.9,-0.2c-1.5,-0.6 -1.7,-3.2 -1.6,-4.9c-0.1,-0.1 -0.2,-0.2 -0.3,-0.3l-0.6,-0.7l0.6,-0.8c0.3,-0.4 1,-0.9 1.7,-0.7c1.8,-0.7 4.3,-0.9 6,-0.1c1.6,0.8 2.5,2.1 2,3.5c-0.5,1.4 -1.8,1.9 -4.5,3.1c-1,0.4 -1.3,0.6 -1.5,0.8c-0.3,0.2 -0.6,0.3 -0.9,0.3Zm-0.3,-5.5c0,0.9 0,2.5 0.3,3.1c0.3,-0.2 0.8,-0.5 1.6,-0.9c1.6,-0.7 3.2,-1.3 3.3,-1.7c0,-0.1 -0.3,-0.5 -0.8,-0.8c-1.2,-0.5 -3.1,-0.2 -4.4,0.3Zm-2.1,-1.1l-0,-0Z" style="fill:#d68734;fill-rule:nonzero;"/></g><g opacity="0.6"><path d="M122.2,183.4c2.4,-1 3.6,-1.5 3.9,-2.4c0.3,-0.9 -0.5,-1.7 -1.4,-2.1c-1.7,-0.8 -4.3,-0.4 -5.8,0.4c-1.7,0.8 0.2,-0.9 0,0c-0.2,0.7 -0.2,4.7 0.8,5.1c1,0.4 0.2,0 2.5,-1Z" style="fill:#d68734;fill-rule:nonzero;"/><path d="M120.2,185.6c-0.3,0 -0.6,-0.1 -0.9,-0.2c-1.5,-0.6 -1.7,-3.2 -1.6,-4.9c-0.1,-0.1 -0.2,-0.2 -0.3,-0.3l-0.6,-0.7l0.6,-0.8c0.3,-0.4 1,-0.9 1.7,-0.7c1.8,-0.7 4.3,-0.9 6.1,-0.1c1.6,0.8 2.4,2.1 2,3.5c-0.4,1.4 -1.8,1.9 -4.6,3.1c-1,0.4 -1.3,0.6 -1.4,0.8c-0.3,0.2 -0.7,0.3 -1,0.3Zm-0.3,-5.5c-0.1,0.9 0,2.5 0.3,3.1c0.3,-0.2 0.8,-0.5 1.6,-0.9c1.6,-0.7 3.2,-1.3 3.3,-1.7c0.1,-0.1 -0.3,-0.5 -0.8,-0.8c-1.2,-0.4 -3.1,-0.2 -4.4,0.3Zm-2.1,-1l0,-0Z" style="fill:#d68734;fill-rule:nonzero;"/></g><g opacity="0.8"><path d="M227.2,138.2c-0.7,-2.5 -1.1,-3.8 -1.9,-4.2c-0.8,-0.4 -1.8,0.3 -2.3,1.2c-1,1.6 -0.9,4.2 -0.2,5.9c0.6,1.8 1.3,0.3 2.1,0.6c0.7,0.3 1,0.2 1.5,-0.8c0.5,-1 1.5,-0.3 0.8,-2.7Z" style="fill:#d68734;fill-rule:nonzero;"/><path d="M223.5,143c-0.2,0 -0.4,0 -0.6,-0.1c-0.7,-0.3 -1,-1 -1.2,-1.5c-0.7,-1.9 -0.8,-4.9 0.3,-6.8c0.9,-1.5 2.4,-2.2 3.7,-1.6c1.3,0.6 1.7,2 2.5,4.9c0.5,1.8 0.3,2.7 -0.7,3.4l-0.2,0.1c-0.5,1 -1.3,2 -2.9,1.3c-0.2,0.1 -0.5,0.3 -0.9,0.3Zm1.3,-8c-0.2,-0 -0.5,0.3 -0.8,0.7c-0.8,1.3 -0.7,3.5 -0.1,4.9c0.4,-0.1 0.9,-0.3 1.5,-0c-0,-0.1 0.1,-0.1 0.1,-0.3c0.3,-0.6 0.7,-0.8 0.9,-1c-0,-0.1 -0,-0.4 -0.2,-0.9c-0.5,-1.6 -1,-3.2 -1.4,-3.4Zm1.5,4.4l-0,0Z" style="fill:#d68734;fill-rule:nonzero;"/></g></g></g></svg>